<?xml version="1.0" encoding="utf-8"?>
<!-- Generator: Adobe Illustrator 26.0.3, SVG Export Plug-In . SVG Version: 6.00 Build 0)  -->
<svg version="1.1" id="레이어_1" xmlns="http://www.w3.org/2000/svg" xmlns:xlink="http://www.w3.org/1999/xlink" x="0px"
	 y="0px" viewBox="0 0 342.4 100" style="enable-background:new 0 0 342.4 100;" xml:space="preserve">
<style type="text/css">
	.st0{fill:#040000;}
	.st1{fill:#A2CA2A;}
	.st2{fill:#FFFFFF;}
</style>
<g>
	<g>
		<g>
			<g>
				<g>
					<g>
						<line class="st0" x1="-654.15" y1="47.14" x2="-654.15" y2="42.72"/>
						<path class="st0" d="M-670.57,40.23h-8.41v-4.92h-3.37v16.78c0,0.7,0.66,1.36,1.36,1.36h16.39V35.31h-3.37v15.55h-11.01v-8.14
							h8.41V40.23z M-661.92,49.72h7.77v5.91h3.02c0.22-1.14,0.35-2.76,0.35-4.59V35.31h-3.37v4.83h-7.77v2.58h7.77v4.42h-7.77
							V49.72z"/>
						<g>
							<path class="st0" d="M-671.6,71.94v-4.99h20.6v-9.32h-24.19v2.49h20.82v4.55h-20.6v8.4c0,0.74,0.66,1.36,1.36,1.36h22.97
								v-2.49H-671.6z"/>
						</g>
					</g>
				</g>
				<g>
					<g>
						<line class="st0" x1="-575.96" y1="47.14" x2="-575.96" y2="42.72"/>
						<path class="st0" d="M-592.38,40.23h-8.41v-4.92h-3.37v16.78c0,0.7,0.66,1.36,1.36,1.36h16.39V35.31h-3.37v15.55h-11.01v-8.14
							h8.41V40.23z M-583.73,49.72h7.77v5.91h3.02c0.22-1.14,0.35-2.76,0.35-4.59V35.31h-3.37v4.83h-7.77v2.58h7.77v4.42h-7.77
							V49.72z"/>
						<g>
							<path class="st0" d="M-593.41,71.94v-4.99h20.6v-9.32H-597v2.49h20.82v4.55h-20.6v8.4c0,0.74,0.66,1.36,1.36,1.36h22.97
								v-2.49H-593.41z"/>
						</g>
					</g>
				</g>
				<g>
					<g>
						<path class="st0" d="M-614.51,35.31v11.48h-5.33V35.31h-3.24v39.13h2.89c0.22-1.14,0.35-2.76,0.35-4.59V49.37h5.33v25.07h2.89
							c0.22-1.14,0.35-2.76,0.35-4.59V35.31H-614.51z"/>
					</g>
				</g>
				<g>
					<g>
						<path class="st0" d="M-545.33,54.09c-5.89-1.64-9.81-6.29-9.81-11.67v-0.39h9.01v-2.58h-21.43v2.58h9.01v0.39
							c0,5.25-3.73,9.81-9.39,11.55l0.86,1.93c4.16-0.87,8.27-3.72,10.24-7.31c1.97,3.59,6.08,6.43,10.24,7.31L-545.33,54.09z"/>
						<g>
							<path class="st0" d="M-559.87,59.23v13.81c0,0.74,0.66,1.4,1.4,1.4h22.57V59.23H-559.87z M-539.27,71.86h-17.24V61.81h17.24
								V71.86z"/>
						</g>
						<g>
							<path class="st0" d="M-535.68,43.29v-7.98h-3.37v21.95h3.02c0.22-1.14,0.35-2.76,0.35-4.59v-6.79h6.12v-2.58H-535.68z"/>
						</g>
					</g>
				</g>
				<g>
					<g>
						<path class="st0" d="M-636.71,58.7c-5.24,0-9.51-4.14-9.51-9.22v-4.02c0-5.09,4.27-9.22,9.51-9.22c5.24,0,9.51,4.14,9.51,9.22
							v4.02C-627.2,54.57-631.46,58.7-636.71,58.7z M-636.71,39.23c-3.59,0-6.52,2.8-6.52,6.23v4.02c0,3.44,2.92,6.23,6.52,6.23
							c3.59,0,6.52-2.8,6.52-6.23v-4.02C-630.19,42.02-633.11,39.23-636.71,39.23z"/>
					</g>
				</g>
				<g>
					<rect x="-561.68" y="34.22" class="st0" width="9.43" height="2.49"/>
				</g>
			</g>
		</g>
		<g>
			<g>
				<g>
					<path class="st1" d="M-683.74,33.58h4.78c-0.15-8.97-4.52-13.86-17.31-13.86h-4.67c-0.55,0-0.43,0.49-0.43,0.49l0.56,2.21
						c0,0,0.15,0.79,0.24,1.83c0.81,8.91,6.1,13.74,16.83,13.37V33.58z"/>
				</g>
			</g>
		</g>
		<path class="st0" d="M-510.43,45.33c1.39-2.78,3.32-4.97,5.8-6.59c2.48-1.62,5.27-2.42,8.39-2.42c3.12,0,5.92,0.81,8.39,2.42
			c2.48,1.62,4.41,3.81,5.8,6.59s2.09,5.8,2.09,9.06c0,3.3-0.7,6.33-2.09,9.09c-1.39,2.76-3.32,4.95-5.8,6.56
			c-2.48,1.62-5.27,2.42-8.39,2.42c-3.12,0-5.92-0.81-8.39-2.42c-2.48-1.62-4.41-3.8-5.8-6.56c-1.39-2.76-2.09-5.79-2.09-9.09
			C-512.52,51.12-511.82,48.1-510.43,45.33z M-489.56,66.95c1.97-1.29,3.51-3.04,4.61-5.24c1.1-2.2,1.65-4.64,1.65-7.32
			c0-2.65-0.55-5.07-1.65-7.27c-1.1-2.2-2.64-3.95-4.61-5.24c-1.97-1.29-4.2-1.93-6.67-1.93c-2.48,0-4.7,0.64-6.67,1.91
			c-1.97,1.27-3.51,3.01-4.61,5.22c-1.1,2.2-1.65,4.65-1.65,7.32c0,2.68,0.55,5.12,1.65,7.32c1.1,2.2,2.64,3.95,4.61,5.24
			c1.97,1.29,4.2,1.94,6.67,1.94C-493.76,68.89-491.54,68.24-489.56,66.95z"/>
		<path class="st0" d="M-411.71,72.07h-3.53V44.05l-11.07,20.18h-2.94l-11.17-20.18v28.02h-3.53V36.71h3.53l12.64,22.78l12.49-22.78
			h3.58V72.07z"/>
		<path class="st0" d="M-426.08,64.87"/>
		<path class="st0" d="M-427.78,59.49"/>
		<path class="st0" d="M-452.61,53.93"/>
		<rect x="-467.76" y="52.14" class="st0" width="14.75" height="3.48"/>
		<polygon class="st0" points="-470.39,40.09 -451.09,40.09 -451.09,36.71 -473.97,36.71 -473.97,72.07 -451.09,72.07 
			-451.09,68.64 -470.39,68.64 -470.39,56.62 -470.39,55.61 -470.39,52.14 -470.39,51.58 		"/>
	</g>
</g>
<g>
	<g>
		<g>
			<g>
				<g>
					<line class="st0" x1="-291.75" y1="47.14" x2="-291.75" y2="42.72"/>
					<path class="st0" d="M-308.18,40.23h-8.41v-4.92h-3.37v16.78c0,0.7,0.66,1.36,1.36,1.36h16.39V35.31h-3.37v15.55h-11.01v-8.14
						h8.41V40.23z M-299.52,49.72h7.77v5.91h3.02c0.22-1.14,0.35-2.76,0.35-4.59V35.31h-3.37v4.83h-7.77v2.58h7.77v4.42h-7.77V49.72
						z"/>
					<g>
						<path class="st0" d="M-309.21,71.94v-4.99h20.6v-9.32h-24.19v2.49h20.82v4.55h-20.6v8.4c0,0.74,0.66,1.36,1.36,1.36h22.97
							v-2.49H-309.21z"/>
					</g>
				</g>
			</g>
			<g>
				<g>
					<line class="st0" x1="-213.56" y1="47.14" x2="-213.56" y2="42.72"/>
					<path class="st0" d="M-229.98,40.23h-8.41v-4.92h-3.37v16.78c0,0.7,0.66,1.36,1.36,1.36h16.39V35.31h-3.37v15.55h-11.01v-8.14
						h8.41V40.23z M-221.33,49.72h7.77v5.91h3.02c0.22-1.14,0.35-2.76,0.35-4.59V35.31h-3.37v4.83h-7.77v2.58h7.77v4.42h-7.77V49.72
						z"/>
					<g>
						<path class="st0" d="M-231.01,71.94v-4.99h20.6v-9.32h-24.19v2.49h20.82v4.55h-20.6v8.4c0,0.74,0.66,1.36,1.36,1.36h22.97
							v-2.49H-231.01z"/>
					</g>
				</g>
			</g>
			<g>
				<g>
					<path class="st0" d="M-252.11,35.31v11.48h-5.33V35.31h-3.24v39.13h2.89c0.22-1.14,0.35-2.76,0.35-4.59V49.37h5.33v25.07h2.89
						c0.22-1.14,0.35-2.76,0.35-4.59V35.31H-252.11z"/>
				</g>
			</g>
			<g>
				<g>
					<path class="st0" d="M-182.93,54.09c-5.89-1.64-9.81-6.29-9.81-11.67v-0.39h9.01v-2.58h-21.43v2.58h9.01v0.39
						c0,5.25-3.73,9.81-9.39,11.55l0.86,1.93c4.16-0.87,8.27-3.72,10.24-7.31c1.97,3.59,6.08,6.43,10.24,7.31L-182.93,54.09z"/>
					<g>
						<path class="st0" d="M-197.48,59.23v13.81c0,0.74,0.66,1.4,1.4,1.4h22.57V59.23H-197.48z M-176.87,71.86h-17.24V61.81h17.24
							V71.86z"/>
					</g>
					<g>
						<path class="st0" d="M-173.29,43.29v-7.98h-3.37v21.95h3.02c0.22-1.14,0.35-2.76,0.35-4.59v-6.79h6.12v-2.58H-173.29z"/>
					</g>
				</g>
			</g>
			<g>
				<g>
					<path class="st0" d="M-274.31,58.7c-5.24,0-9.51-4.14-9.51-9.22v-4.02c0-5.09,4.27-9.22,9.51-9.22c5.24,0,9.51,4.14,9.51,9.22
						v4.02C-264.8,54.57-269.07,58.7-274.31,58.7z M-274.31,39.23c-3.59,0-6.52,2.8-6.52,6.23v4.02c0,3.44,2.92,6.23,6.52,6.23
						c3.59,0,6.52-2.8,6.52-6.23v-4.02C-267.79,42.02-270.72,39.23-274.31,39.23z"/>
				</g>
			</g>
			<g>
				<rect x="-199.28" y="34.22" class="st0" width="9.43" height="2.49"/>
			</g>
		</g>
	</g>
	<g>
		<path class="st0" d="M-321.34,33.58h4.78c-0.15-8.97-4.52-13.86-17.31-13.86h-4.67c-0.55,0-0.43,0.49-0.43,0.49l0.56,2.21
			c0,0,0.15,0.79,0.24,1.83c0.81,8.91,6.1,13.74,16.83,13.37V33.58z"/>
	</g>
	<path class="st0" d="M-148.03,45.33c1.39-2.78,3.32-4.97,5.8-6.59c2.48-1.62,5.27-2.42,8.39-2.42c3.12,0,5.92,0.81,8.39,2.42
		c2.48,1.62,4.41,3.81,5.8,6.59c1.39,2.78,2.09,5.8,2.09,9.06c0,3.3-0.7,6.33-2.09,9.09c-1.39,2.76-3.32,4.95-5.8,6.56
		c-2.48,1.62-5.27,2.42-8.39,2.42c-3.12,0-5.92-0.81-8.39-2.42c-2.48-1.62-4.41-3.8-5.8-6.56c-1.39-2.76-2.09-5.79-2.09-9.09
		C-150.12,51.12-149.43,48.1-148.03,45.33z M-127.17,66.95c1.97-1.29,3.51-3.04,4.61-5.24c1.1-2.2,1.65-4.64,1.65-7.32
		c0-2.65-0.55-5.07-1.65-7.27c-1.1-2.2-2.64-3.95-4.61-5.24c-1.97-1.29-4.2-1.93-6.67-1.93c-2.48,0-4.7,0.64-6.67,1.91
		c-1.97,1.27-3.51,3.01-4.61,5.22c-1.1,2.2-1.65,4.65-1.65,7.32c0,2.68,0.55,5.12,1.65,7.32c1.1,2.2,2.64,3.95,4.61,5.24
		c1.97,1.29,4.2,1.94,6.67,1.94C-131.36,68.89-129.14,68.24-127.17,66.95z"/>
	<path class="st0" d="M-49.31,72.07h-3.53V44.05l-11.07,20.18h-2.94l-11.17-20.18v28.02h-3.53V36.71h3.53l12.64,22.78l12.49-22.78
		h3.58V72.07z"/>
	<path class="st0" d="M-63.68,64.87"/>
	<path class="st0" d="M-65.38,59.49"/>
	<path class="st0" d="M-90.21,53.93"/>
	<rect x="-105.37" y="52.14" class="st0" width="14.75" height="3.48"/>
	<polygon class="st0" points="-107.99,40.09 -88.69,40.09 -88.69,36.71 -111.57,36.71 -111.57,72.07 -88.69,72.07 -88.69,68.64 
		-107.99,68.64 -107.99,56.62 -107.99,55.61 -107.99,52.14 -107.99,51.58 	"/>
</g>
<g>
	<g>
		<g>
			<g>
				<g>
					<line class="st2" x1="70.65" y1="47.14" x2="70.65" y2="42.72"/>
					<path class="st2" d="M54.22,40.23h-8.41v-4.92h-3.37v16.78c0,0.7,0.66,1.36,1.36,1.36h16.39V35.31h-3.37v15.55H45.81v-8.14
						h8.41V40.23z M62.87,49.72h7.77v5.91h3.02c0.22-1.14,0.35-2.76,0.35-4.59V35.31h-3.37v4.83h-7.77v2.58h7.77v4.42h-7.77V49.72z"
						/>
					<g>
						<path class="st2" d="M53.19,71.94v-4.99h20.6v-9.32H49.6v2.49h20.82v4.55h-20.6v8.4c0,0.74,0.66,1.36,1.36,1.36h22.97v-2.49
							H53.19z"/>
					</g>
				</g>
			</g>
			<g>
				<g>
					<line class="st2" x1="148.84" y1="47.14" x2="148.84" y2="42.72"/>
					<path class="st2" d="M132.41,40.23H124v-4.92h-3.37v16.78c0,0.7,0.66,1.36,1.36,1.36h16.39V35.31h-3.37v15.55H124v-8.14h8.41
						V40.23z M141.07,49.72h7.77v5.91h3.02c0.22-1.14,0.35-2.76,0.35-4.59V35.31h-3.37v4.83h-7.77v2.58h7.77v4.42h-7.77V49.72z"/>
					<g>
						<path class="st2" d="M131.38,71.94v-4.99h20.6v-9.32H127.8v2.49h20.82v4.55h-20.6v8.4c0,0.74,0.66,1.36,1.36,1.36h22.97v-2.49
							H131.38z"/>
					</g>
				</g>
			</g>
			<g>
				<g>
					<path class="st2" d="M110.29,35.31v11.48h-5.33V35.31h-3.24v39.13h2.89c0.22-1.14,0.35-2.76,0.35-4.59V49.37h5.33v25.07h2.89
						c0.22-1.14,0.35-2.76,0.35-4.59V35.31H110.29z"/>
				</g>
			</g>
			<g>
				<g>
					<path class="st2" d="M179.47,54.09c-5.89-1.64-9.81-6.29-9.81-11.67v-0.39h9.01v-2.58h-21.43v2.58h9.01v0.39
						c0,5.25-3.73,9.81-9.39,11.55l0.86,1.93c4.16-0.87,8.27-3.72,10.24-7.31c1.97,3.59,6.08,6.43,10.24,7.31L179.47,54.09z"/>
					<g>
						<path class="st2" d="M164.92,59.23v13.81c0,0.74,0.66,1.4,1.4,1.4h22.57V59.23H164.92z M185.52,71.86h-17.24V61.81h17.24
							V71.86z"/>
					</g>
					<g>
						<path class="st2" d="M189.11,43.29v-7.98h-3.37v21.95h3.02c0.22-1.14,0.35-2.76,0.35-4.59v-6.79h6.12v-2.58H189.11z"/>
					</g>
				</g>
			</g>
			<g>
				<g>
					<path class="st2" d="M88.09,58.7c-5.24,0-9.51-4.14-9.51-9.22v-4.02c0-5.09,4.27-9.22,9.51-9.22c5.24,0,9.51,4.14,9.51,9.22
						v4.02C97.59,54.57,93.33,58.7,88.09,58.7z M88.09,39.23c-3.59,0-6.52,2.8-6.52,6.23v4.02c0,3.44,2.92,6.23,6.52,6.23
						c3.59,0,6.52-2.8,6.52-6.23v-4.02C94.61,42.02,91.68,39.23,88.09,39.23z"/>
				</g>
			</g>
			<g>
				<rect x="163.12" y="34.22" class="st2" width="9.43" height="2.49"/>
			</g>
		</g>
	</g>
	<g>
		<path class="st2" d="M41.05,33.58h4.78c-0.15-8.97-4.52-13.86-17.31-13.86h-4.67c-0.55,0-0.43,0.49-0.43,0.49l0.56,2.21
			c0,0,0.15,0.79,0.24,1.83c0.81,8.91,6.1,13.74,16.83,13.37V33.58z"/>
	</g>
	<path class="st2" d="M214.36,45.33c1.39-2.78,3.32-4.97,5.8-6.59c2.48-1.62,5.27-2.42,8.39-2.42c3.12,0,5.92,0.81,8.39,2.42
		c2.48,1.62,4.41,3.81,5.8,6.59c1.39,2.78,2.09,5.8,2.09,9.06c0,3.3-0.7,6.33-2.09,9.09c-1.39,2.76-3.32,4.95-5.8,6.56
		c-2.48,1.62-5.27,2.42-8.39,2.42c-3.12,0-5.92-0.81-8.39-2.42c-2.48-1.62-4.41-3.8-5.8-6.56c-1.39-2.76-2.09-5.79-2.09-9.09
		C212.28,51.12,212.97,48.1,214.36,45.33z M235.23,66.95c1.97-1.29,3.51-3.04,4.61-5.24c1.1-2.2,1.65-4.64,1.65-7.32
		c0-2.65-0.55-5.07-1.65-7.27c-1.1-2.2-2.64-3.95-4.61-5.24c-1.97-1.29-4.2-1.93-6.67-1.93c-2.48,0-4.7,0.64-6.67,1.91
		c-1.97,1.27-3.51,3.01-4.61,5.22c-1.1,2.2-1.65,4.65-1.65,7.32c0,2.68,0.55,5.12,1.65,7.32c1.1,2.2,2.64,3.95,4.61,5.24
		c1.97,1.29,4.2,1.94,6.67,1.94C231.03,68.89,233.26,68.24,235.23,66.95z"/>
	<path class="st2" d="M313.08,72.07h-3.53V44.05l-11.07,20.18h-2.94l-11.17-20.18v28.02h-3.53V36.71h3.53l12.64,22.78l12.49-22.78
		h3.58V72.07z"/>
	<path class="st2" d="M298.71,64.87"/>
	<path class="st2" d="M297.02,59.49"/>
	<path class="st2" d="M272.18,53.93"/>
	<rect x="257.03" y="52.14" class="st2" width="14.75" height="3.48"/>
	<polygon class="st2" points="254.4,40.09 273.7,40.09 273.7,36.71 250.83,36.71 250.83,72.07 273.7,72.07 273.7,68.64 254.4,68.64 
		254.4,56.62 254.4,55.61 254.4,52.14 254.4,51.58 	"/>
</g>
</svg>
